# xmcd
#
# Track frame offsets: 
#        150
#        12238
#        22012
#        35396
#        49711
#        64278
#        77534
#        91176
#        102915
#        115027
#
# Disc length: 1700 seconds
#
# Revision: 0
# Processed by: cddbd v1.4PL0 Copyright (c) Steve Scherf et al.
# Submitted via: ExactAudioCopy v0.90b2
#
DISCID=7106a20a
DTITLE=Johnny Paycheck - Greatest Hits (Front Row Entertainment)
DYEAR=1900
DGENRE=Country
TTITLE0=Take This Job And Shove It
TTITLE1=Mr. Lovemaker
TTITLE2=She's All I Got
TTITLE3=Friend, Lover, Wife
TTITLE4=I'm The Only Hell (Mama Ever Raised)
TTITLE5=Slide Off Of Your Satin Sheets
TTITLE6=Someone To Give My Love To
TTITLE7=Song And Dance Man
TTITLE8=Something About You I Love
TTITLE9=Love Is A Good Thing
EXTD=
EXTT0=
EXTT1=
EXTT2=
EXTT3=
EXTT4=
EXTT5=
EXTT6=
EXTT7=
EXTT8=
EXTT9=
PLAYORDER=
